<svg viewBox="90 34 64.3 64" fill="none" xmlns="http://www.w3.org/2000/svg">
<path fill-rule="evenodd" clip-rule="evenodd" d="M143.039 34C143.603 34.4771 144.344 34.4309 144.997 34.6424C150.408 36.4034 154.226 41.3803 154.254 47.0705C154.316 59.6894 154.445 72.3122 154.218 84.9282C154.077 92.8634 148.011 97.8796 141.156 97.9938C134.422 98.1059 127.686 98.1059 120.948 97.9938C106.215 97.736 92.9407 86.1884 90.5177 71.6679C90.1665 69.5652 89.9934 67.4366 90.0002 65.3048C90.0179 59.6166 90.0071 53.9294 90.009 48.2412C90.009 40.9878 93.6933 36.185 100.719 34.2764C100.924 34.2204 101.173 34.2764 101.26 34.001L143.039 34ZM125.266 79.2754V79.3492H131.424C131.826 79.3492 132.228 79.3581 132.629 79.3492C134.356 79.301 135.527 78.2247 135.531 76.693C135.535 75.1613 134.365 74.0368 132.642 74.027C128.537 74.0044 124.43 74.027 120.324 74.0201C116.235 74.0201 114.118 71.9315 114.115 67.8961C114.115 63.896 114.119 59.895 114.115 55.894C114.115 53.9264 113.114 52.7213 111.495 52.6859C109.798 52.6495 108.768 53.831 108.764 55.8605C108.755 59.8615 108.764 63.8626 108.764 67.8626C108.764 69.8105 108.942 71.7092 109.829 73.5046C111.357 76.5946 114.481 79.0767 118.043 79.2577C120.442 79.3738 122.856 79.2754 125.266 79.2754ZM127.464 52.6711C125.679 52.6711 123.893 52.6377 122.109 52.681C120.465 52.7213 119.492 53.7543 119.478 55.3618C119.465 56.924 120.475 57.9727 122.15 57.9904C125.676 58.0258 129.201 58.0258 132.727 57.9904C134.329 57.9757 135.51 56.8197 135.535 55.3755C135.562 53.8389 134.39 52.6987 132.682 52.6692C130.945 52.6475 129.205 52.6711 127.464 52.6711ZM126.114 63.3441C124.865 63.3441 123.616 63.3284 122.368 63.3441C120.673 63.3697 119.515 64.4263 119.48 65.9462C119.445 67.4662 120.615 68.6437 122.311 68.6644C124.897 68.6965 127.482 68.6965 130.068 68.6644C131.699 68.6418 132.839 67.5213 132.855 66.0358C132.871 64.5011 131.701 63.3795 129.992 63.3451C128.7 63.3215 127.406 63.3441 126.114 63.3441Z" fill="white"/>
</svg>
