<svg width="40" height="40" viewBox="0 0 40 40" fill="none" xmlns="http://www.w3.org/2000/svg">
<g clip-path="url(#clip0_7195_157695)">
<g opacity="0.4" clip-path="url(#clip1_7195_157695)">
<path d="M40 14H0" stroke="#D3D8DF" stroke-width="0.7" stroke-miterlimit="10" stroke-dasharray="1.6 1.6"/>
<path d="M40 26H0" stroke="#D3D8DF" stroke-width="0.7" stroke-miterlimit="10" stroke-dasharray="1.6 1.6"/>
<path d="M19.9473 -0.000207424L20 40" stroke="#D3D8DF" stroke-width="0.7" stroke-miterlimit="10" stroke-dasharray="1.6 1.6"/>
<path d="M35 0V40" stroke="#D3D8DF" stroke-width="0.7" stroke-miterlimit="10"/>
<path d="M5 0V40" stroke="#D3D8DF" stroke-width="0.7" stroke-miterlimit="10"/>
<path d="M0 5H40" stroke="#D3D8DF" stroke-width="0.7" stroke-miterlimit="10"/>
<path d="M0 35H40" stroke="#D3D8DF" stroke-width="0.7" stroke-miterlimit="10"/>
</g>
<path d="M31.8173 25.0037V19.7472L31.8174 12.9351V7.16119C31.8174 6.81614 31.6136 6.50142 31.2888 6.35011L28.6715 5.09732C28.3849 4.95805 28.041 4.97015 27.7608 5.12146L23.7552 7.32461L23.7297 7.33665L23.6978 7.35481L21.609 6.33794L21.539 6.30774C21.0232 6.03538 20.3163 6.08985 19.533 6.51352C17.96 7.38501 16.6736 9.48526 16.6736 11.2042L11.337 14.1396C11.0377 14.2969 10.8594 14.5996 10.8594 14.9264V20.7367C9.27366 21.6082 8 23.7085 8 25.4334C8 26.1536 8.22283 26.6984 8.59856 27.0252L10.8593 28.1206V32.7628C10.8593 33.1078 11.0631 33.4165 11.3815 33.5739L14.0052 34.8207C14.2918 34.9599 14.6293 34.9539 14.9095 34.7965L20.3098 31.8369L20.5327 31.7158C20.6092 29.779 22.042 27.4852 23.7997 26.5168L26.602 27.9029C26.8914 28.0461 27.2376 28.0389 27.5202 27.884L31.3397 25.7904C31.6326 25.6271 31.8173 25.3245 31.8173 25.0037Z" fill="white"/>
<path d="M31.8173 25.0037V19.7472L31.8174 12.9351V7.16119C31.8174 6.81614 31.6136 6.50142 31.2888 6.35011L28.6715 5.09732C28.3849 4.95805 28.041 4.97015 27.7608 5.12146L23.7552 7.32461L23.7297 7.33665L23.6978 7.35481L21.609 6.33794L21.539 6.30774C21.0232 6.03538 20.3163 6.08985 19.533 6.51352C17.96 7.38501 16.6736 9.48526 16.6736 11.2042L11.337 14.1396C11.0377 14.2969 10.8594 14.5996 10.8594 14.9264V20.7367C9.27366 21.6082 8 23.7085 8 25.4334C8 26.1536 8.22283 26.6984 8.59856 27.0252L10.8593 28.1206V32.7628C10.8593 33.1078 11.0631 33.4165 11.3815 33.5739L14.0052 34.8207C14.2918 34.9599 14.6293 34.9539 14.9095 34.7965L20.3098 31.8369L27.5202 27.884L31.3397 25.7904C31.6326 25.6271 31.8173 25.3245 31.8173 25.0037Z" fill="white" stroke="#505967" stroke-width="1.1" stroke-linecap="round" stroke-linejoin="round"/>
<g opacity="0.6">
<path d="M14.9214 34.8794C14.7813 34.9521 14.6221 34.9944 14.4629 35.0005V28.706C14.3483 28.7726 14.2336 28.8209 14.1254 28.8754H14.119C14.0107 28.9179 13.9025 28.9602 13.7942 28.9904H13.7878C13.5713 29.0449 13.3675 29.0812 13.1765 29.0812C13.1128 29.0812 13.0555 29.0752 12.9918 29.0752C12.9473 29.0691 12.8963 29.0631 12.8581 29.0449C12.8071 29.0389 12.7562 29.0267 12.7116 29.0146L12.6798 29.0086L12.6543 28.9965L12.304 28.821L12.2849 28.8089C12.1703 28.7242 12.0684 28.6273 11.9856 28.5063C11.9538 28.47 11.9283 28.4216 11.8965 28.3791C11.8455 28.2884 11.7946 28.1916 11.7564 28.0826C11.7373 28.0341 11.7181 27.9737 11.7054 27.9131C11.6863 27.8768 11.6799 27.8405 11.6672 27.7982C11.6545 27.7376 11.6417 27.665 11.6354 27.5924C11.6226 27.5198 11.6163 27.435 11.6099 27.3503C11.6035 27.2837 11.6035 27.2232 11.6035 27.1565C11.6035 25.4317 12.8772 23.3194 14.4629 22.4539V16.123L20.2771 12.9274C20.2771 11.2689 21.468 9.25953 22.9774 8.33962C23.0283 8.30324 23.0856 8.26693 23.1429 8.23673C23.8816 7.83122 24.5566 7.76464 25.0725 7.99463L25.1552 8.03101C25.6774 8.30942 26.0022 8.91466 26.0022 9.78615L28.212 8.57566L31.6382 6.69336C31.7592 6.84467 31.8292 7.03829 31.8292 7.23808" stroke="#505967" stroke-width="0.7" stroke-linecap="round" stroke-linejoin="round"/>
<path d="M20.2783 12.9276L16.6738 11.2051" stroke="#505967" stroke-width="0.7" stroke-linecap="round" stroke-linejoin="round"/>
<path d="M14.4634 16.1226L10.9902 14.4629" stroke="#505967" stroke-width="0.7" stroke-linecap="round" stroke-linejoin="round"/>
<path d="M14.4638 22.4524L10.8594 20.7363" stroke="#505967" stroke-width="0.7" stroke-linecap="round" stroke-linejoin="round"/>
<path d="M10.8633 28.1191L12.2849 28.8083" stroke="#505967" stroke-width="0.7" stroke-linecap="round" stroke-linejoin="round"/>
<path d="M23.6934 7.35547L25.0729 7.99176" stroke="#505967" stroke-width="0.7" stroke-linecap="round" stroke-linejoin="round"/>
</g>
</g>
<defs>
<clipPath id="clip0_7195_157695">
<rect width="40" height="40" fill="white"/>
</clipPath>
<clipPath id="clip1_7195_157695">
<rect width="40" height="40" fill="white"/>
</clipPath>
</defs>
</svg>
